<svg version="1.1" xmlns="http://www.w3.org/2000/svg" viewBox="-242.68799896240233 -1136.6400634765625 3187.712255859375 1452.032080078125"><desc>Created with Snap</desc><defs></defs><g><rect x="-242.68799896240233" y="-1136.6400634765625" width="3187.712255859375" height="1452.032080078125" fill="#210070" style=""></rect><g><g transform="matrix(1.024,0,0,-1.024,0,0)"><path d="M159 0L63 0L63 810L140 810L370 272L370 810L464 810L464 0L392 0L159 553L159 0ZM742 -8Q674 -8 637 18Q600 45 585 96Q571 148 571 223L571 355Q571 432 586 483Q601 534 638 560Q676 586 742 586Q815 586 849 556Q884 526 895 469Q906 413 906 334L906 287L678 287L678 171Q678 136 684 114Q691 92 705 81Q720 71 743 71Q767 71 779 82Q792 94 796 115Q801 137 801 166L801 201L905 201L905 179Q905 92 868 42Q831 -8 742 -8ZM678 376L678 345L801 345L801 397Q801 433 797 457Q793 482 780 494Q768 507 741 507Q715 507 701 495Q688 483 683 454Q678 426 678 376ZM1157 -8Q1112 -8 1084 9Q1057 26 1044 57Q1032 88 1032 130L1032 507L971 507L971 578L1032 578L1032 747L1139 747L1139 578L1232 578L1232 507L1139 507L1139 137Q1139 103 1150 88Q1161 74 1192 74Q1200 74 1210 75Q1221 76 1231 77L1231 -2Q1211 -5 1194 -7Q1177 -8 1157 -8ZM1433 0L1320 0L1320 810L1521 810Q1594 810 1637 783Q1681 757 1701 707Q1721 657 1721 586Q1721 522 1698 475Q1676 428 1632 402Q1588 377 1522 377L1433 377L1433 0ZM1433 729L1433 458L1485 458Q1534 458 1562 469Q1590 480 1602 507Q1614 535 1614 585Q1614 643 1605 674Q1597 705 1570 717Q1543 729 1486 729L1433 729ZM1908 0L1801 0L1801 810L1908 810L1908 0ZM2134 0L2027 0L2027 578L2134 578L2134 0ZM2134 664L2027 664L2027 776L2134 776L2134 664ZM2305 0L2204 0L2334 304L2207 578L2309 578L2394 395L2469 578L2574 578L2442 291L2576 0L2474 0L2383 196L2305 0Z" fill="#ffffff" style=""></path></g></g></g></svg>